General
Format                                   : MPEG-4
File size                                : 622 MiB
Duration                                 : 1h 18mn
Overall bit rate mode                    : Variable
Overall bit rate                         : 1 108 Kbps
Movie name                               : Cirque.Du.Soleil.Saltimbanco
Genre                                    : Cirque
Recorded date                            : 1997

Video
ID                                       : 1
Format                                   : AVC
Duration                                 : 1h 18mn
Bit rate                                 : 1 000 Kbps
Maximum bit rate                         : 3 539 Kbps
Width                                    : 480 pixels
Height                                   : 400 pixels
Display aspect ratio                     : 1.300
Frame rate mode                          : Constant
Frame rate                               : 23.976 fps
Stream size                              : 561 MiB (90%)
Writing library                          : x264 core 116 r2042 178455c

Audio
ID                                       : 2
Format                                   : AAC
Duration                                 : 1h 18mn
Bit rate mode                            : Variable
Bit rate                                 : 104 Kbps
Maximum bit rate                         : 133 Kbps
Channel(s)                               : 2 channels
Sampling rate                            : 48.0 KHz
Stream size                              : 58.5 MiB (9%)
Title                                    : LC-AAC Stereo
